<?xml version="1.0" encoding="iso-8859-1"?>
<!-- Uploaded to: SVG Repo, www.svgrepo.com, Generator: SVG Repo Mixer Tools -->
<svg fill="#000000" version="1.1" id="Layer_1" xmlns="http://www.w3.org/2000/svg" xmlns:xlink="http://www.w3.org/1999/xlink" 
	 viewBox="0 0 491.52 491.52" xml:space="preserve">
<g>
	<g>
		<path d="M0,311.204v51.007c0,5.232,4.241,9.473,9.471,9.473h472.578c5.231,0,9.471-4.241,9.471-9.473v-51.007H0z M245.76,355.059
			c-7.519,0-13.617-6.094-13.617-13.615c0-7.52,6.097-13.618,13.617-13.618c7.521,0,13.618,6.098,13.618,13.618
			C259.378,348.965,253.281,355.059,245.76,355.059z"/>
	</g>
</g>
<g>
	<g>
		<rect x="150.07" y="387.532" width="191.39" height="36.31"/>
	</g>
</g>
<g>
	<g>
		<rect x="129.13" y="439.702" width="233.22" height="32.968"/>
	</g>
</g>
<g>
	<g>
		<path d="M191.74,114.46c-37.781,0-68.516,30.736-68.516,68.516c0,37.78,30.735,68.516,68.516,68.516
			c37.78,0,68.519-30.736,68.519-68.516C260.259,145.196,229.521,114.46,191.74,114.46z M191.74,235.636
			c-29.037,0-52.661-23.62-52.661-52.66c0-29.04,23.624-52.66,52.661-52.66c29.04,0,52.664,23.621,52.664,52.66
			C244.404,212.016,220.78,235.636,191.74,235.636z"/>
	</g>
</g>
<g>
	<g>
		<path d="M212.71,183.61c-3.528-2.997-9.045-5.391-16.557-7.153h-0.296V158.04c5.028,0.718,9.7,2.614,14.009,5.685l6.371-9.019
			c-6.402-4.37-13.197-6.826-20.38-7.343v-5h-6.271v4.895c-6.334,0.329-11.482,2.291-15.432,5.884
			c-3.951,3.588-5.928,8.214-5.928,13.858c0,5.654,1.718,9.921,5.146,12.79c3.429,2.88,8.83,5.191,16.214,6.953v19.009
			c-5.811-0.909-11.462-3.755-16.951-8.524l-7.152,8.524c7.121,6.212,15.154,9.768,24.104,10.684v7.154h6.271v-7.056
			c6.662-0.328,12.016-2.289,16.067-5.878c4.05-3.596,6.076-8.243,6.076-13.961C218.001,190.979,216.238,186.616,212.71,183.61z
			 M189.586,174.696c-3.66-1.173-6.139-2.4-7.447-3.676c-1.308-1.275-1.958-2.997-1.958-5.189c0-2.187,0.833-4.018,2.495-5.488
			c1.667-1.467,3.972-2.335,6.91-2.599V174.696z M203.305,203.304c-1.829,1.508-4.313,2.418-7.447,2.744V188.41
			c3.919,1.18,6.598,2.44,8.033,3.771c1.435,1.339,2.156,3.159,2.156,5.438C206.047,199.908,205.131,201.806,203.305,203.304z"/>
	</g>
</g>
<g>
	<g>
		<path d="M482.049,18.85H9.471C4.241,18.85,0,23.088,0,28.319V295.35h28.083V63.835c0-8.942,7.181-16.211,16.011-16.211h403.335
			c8.83,0,16.011,7.269,16.011,16.211V295.35h28.08V28.319C491.52,23.088,487.28,18.85,482.049,18.85z"/>
	</g>
</g>
<g>
	<g>
		<path d="M447.429,63.48H44.094l-0.15,231.871h403.635L447.429,63.48z M191.743,271.76c-49.034,0-88.787-39.75-88.787-88.785
			c0-49.035,39.752-88.785,88.787-88.785c41.244,0,75.818,28.165,85.796,66.281l2.375,32.607
			C274.892,237.348,237.356,271.76,191.743,271.76z M376.53,280.102l-32.777-32.777l-14.521,28.208l-42.158-100.836l100.838,42.156
			l-28.209,14.52l32.777,32.778L376.53,280.102z"/>
	</g>
</g>
</svg>